<mxfile host="app.diagrams.net" modified="2021-01-13T20:26:56.266Z" agent="5.0 (Windows NT 10.0; Win64; x64) AppleWebKit/537.36 (KHTML, like Gecko) Chrome/75.0.3770.100 Safari/537.36" etag="PFrfMGHkhs2QNUb8cMtq" version="13.6.4" type="github">
  <diagram id="zsKxHxIdEjAOTKjz0cl0" name="PÃ¡gina-1">
    <mxGraphModel dx="806" dy="490" grid="0" gridSize="10" guides="1" tooltips="1" connect="1" arrows="1" fold="1" page="0" pageScale="1" pageWidth="1100" pageHeight="850" math="0" shadow="0">
      <root>
        <mxCell id="0" />
        <mxCell id="1" parent="0" />
      </root>
    </mxGraphModel>
  </diagram>
</mxfile>
